# xmcd
#
# Track frame offsets:
#	150
#	10332
#	22217
#	33810
#	43895
#	53117
#	63560
#	75912
#	83917
#	95190
#	106457
#	116355
#	125907
#	134545
#
# Disc length: 2029 seconds
#
# Revision: 1
# Processed by: cddbd v1.5.2PL0 Copyright (c) Steve Scherf et al.
# Submitted via: audiograbber 1.83.01
#
DISCID=c107eb0e
DTITLE=Various Artist - Country Fest 1
DYEAR=1998
DGENRE=Country
TTITLE0=Lillian Askeland - Jambalaya
TTITLE1=Lillian Askeland - Kun En Gylden Ring
TTITLE2=Rita Engebretsen - Ekte Texas Skreppe
TTITLE3=Bjøro Håland - Si Han Må Gå
TTITLE4=Gro Anita - Bare Du Synes Om Meg
TTITLE5=Leif Dørme - Steelgitar Rag
TTITLE6=Ottar ''Big Hand'' Johansen - Mitt Liv Er Country Musikk
TTITLE7=Bjøro Håland and Rita Engebretsen - Billy Boy
TTITLE8=Ottar ''Big Hand'' Johansen - 4 Timer Igjen
TTITLE9=Rita Engebretsen - Det Hender Iblant
TTITLE10=Lillian and ''Big Hand'' - Nå Er Det Over
TTITLE11=Bjøro Håland - Vis Deg På Byen En Kveld
TTITLE12=Lillan Askeland - Tennessee Waltz
TTITLE13=Country Fest Medley - 1. Hele Uken Alene, 2. Mariann 3. Bimbo 4. Natto
TTITLE13=g Til Memphis 5. Lille By 6. Nå Skal Den Lille Grå Mus Bli Til Et Kjei
TTITLE13=7. Vaya Con Dios 8. Y' All Come
EXTD=Norwegian Country
EXTT0=
EXTT1=
EXTT2=
EXTT3=
EXTT4=
EXTT5=
EXTT6=
EXTT7=
EXTT8=
EXTT9=
EXTT10=
EXTT11=
EXTT12=
EXTT13=
PLAYORDER=
